# xmcd
#
# Track frame offsets:
#	150
#	9292
#	19766
#	29785
#	38850
#	50210
#	62792
#	71155
#	83112
#	95191
#	106832
#	121961
#	130705
#	140986
#	153077
#	163000
#	171755
#	181876
#	190943
#	202407
#	213431
#	227615
#	237776
#	247826
#	258939
#	269691
#	281268
#	291968
#
# Disc length: 4019 seconds
#
# Revision: 0
# Processed by: cddbd v1.5.2PL0 Copyright (c) Steve Scherf et al.
# Submitted via: audiograbber 1.83.01
#
DISCID=a00fb11c
DTITLE=Don Gibson - The Complete Recordings [1952-1962] [CD3]
DYEAR=2017
DGENRE=Country
TTITLE0=My Hands Are Tied (1960)
TTITLE1=Big Hearted Me (1960)
TTITLE2=It Only Hurts For A Little While (1960)
TTITLE3=Never Love Again (1960)
TTITLE4=Lonely Street (1960)
TTITLE5=Just One Time (1960)
TTITLE6=Why Don't You Love Me (1960)
TTITLE7=My Love For You (1960)
TTITLE8=On the Banks Of The Old Pontchartrain (1960)
TTITLE9=If I Can Stay Away (1960)
TTITLE10=The Streets Of Laredo (1960)
TTITLE11=Everybody But Me (1960)
TTITLE12=Hurtin' Inside (1960)
TTITLE13=The World Is Waiting For The Sunrise (1960)
TTITLE14=Far,Far Away (1960)
TTITLE15=Sweet Dreams (1960)
TTITLE16=What About Me (1960)
TTITLE17=What's The Reason I'm Not Pleasin' You (1960)
TTITLE18=My Tears Don't Show (1960)
TTITLE19=A Legend In My Time (1960)
TTITLE20=The Next Voice You Hear (1960)
TTITLE21=Foolish Me (1960)
TTITLE22=Time hurts (1960)
TTITLE23=Maybe Tomorrow (1960)
TTITLE24=The Same Street
TTITLE25=Sea Of Heartbreak
TTITLE26=Lonesome Number One
TTITLE27=The Same Old Trouble
EXTD=
EXTT0=
EXTT1=
EXTT2=
EXTT3=
EXTT4=
EXTT5=
EXTT6=
EXTT7=
EXTT8=
EXTT9=
EXTT10=
EXTT11=
EXTT12=
EXTT13=
EXTT14=
EXTT15=
EXTT16=
EXTT17=
EXTT18=
EXTT19=
EXTT20=
EXTT21=
EXTT22=
EXTT23=
EXTT24=
EXTT25=
EXTT26=
EXTT27=
PLAYORDER=
